# xmcd
#
# Track frame offsets:
#	150
#	17670
#	37730
#	59162
#	71302
#	85652
#	101015
#	115950
#	126332
#	150530
#	166347
#	193440
#	205147
#	213917
#	247025
#	260997
#	280980
#	291192
#
# Disc length: 4126
#
# Revision: 4
# Processed by: cddbd v1.5.1PL0 Copyright (c) Steve Scherf et al.
# Submitted via: CDex 1.51
# Normalized: r3:TDELIM( - )
#
DISCID=12101c12
DTITLE=Various Artist - Songs from The Beatles Jazz
DYEAR=2001
DGENRE=Jazz
TTITLE0=Ella Fitzgerald - Hey Jude
TTITLE1=Leo Gandelman - The Long and Winding Road
TTITLE2=Ceccarelli Trio - And I love Her
TTITLE3=Bitkids - Submarino Amarelo
TTITLE4=Sergio Mendes - Fool on the Hill
TTITLE5=Sarah Vaughan - Michelle
TTITLE6=Willie Bobo - Michelle
TTITLE7=Count Basie - Help
TTITLE8=Jeffery Smith - Elenor Rigby
TTITLE9=William Galison - Julia
TTITLE10=Yashiko Kishino - Here There and Everywhere
TTITLE11=Serio Mendes - With a Little Help from my Friends
TTITLE12=Bitkids - A Felicidate Existe
TTITLE13=Ceccarelli Trio - Norwegian Woodday
TTITLE14=Sergio Mendes - Day Tripper
TTITLE15=Count Basie - A Hard Day's Night
TTITLE16=Sarah Vaughan - Yesterday
TTITLE17=Oscar Peterson - Yesterday
EXTD=YEAR: 2001
EXTT0=
EXTT1=
EXTT2=
EXTT3=
EXTT4=
EXTT5=
EXTT6=
EXTT7=
EXTT8=
EXTT9=
EXTT10=
EXTT11=
EXTT12=
EXTT13=
EXTT14=
EXTT15=
EXTT16=
EXTT17=
PLAYORDER=
